<svg xmlns="http://www.w3.org/2000/svg" xmlns:xlink="http://www.w3.org/1999/xlink" version="1.1" id="Layer_1" x="0" y="0" width="161" height="161" viewBox="0 0 161 161" enable-background="new 0 0 161 161" xml:space="preserve">
  <defs>
    <style type="text/css">
        <![CDATA[
           path, line{
             fill: #ffffff;
           }
        ]]>
    </style>
  </defs>
  <path d="M80.562 7.417c0.472 0 0.855-0.383 0.855-0.855V1.855C81.418 1.383 81.035 1 80.562 1c-0.474 0-0.857 0.383-0.857 0.855v4.707C79.706 7.034 80.089 7.417 80.562 7.417z"/>
  <path d="M80.562 153.584c-0.474 0-0.857 0.382-0.857 0.855v4.705c0 0.474 0.383 0.855 0.857 0.855 0.472 0 0.855-0.382 0.855-0.855v-4.705C81.418 153.968 81.035 153.584 80.562 153.584z"/>
  <path d="M159.207 79.646h-4.706c-0.471 0-0.855 0.383-0.855 0.855s0.385 0.857 0.855 0.857h4.706c0.473 0 0.855-0.383 0.855-0.857S159.68 79.646 159.207 79.646z"/>
  <path d="M6.625 79.646H1.918c-0.474 0-0.855 0.383-0.855 0.855s0.382 0.857 0.855 0.857h4.705c0.472 0 0.855-0.383 0.855-0.857S7.097 79.646 6.625 79.646z"/>
  <path d="M117.713 16.568l2.314-4.096c0.232-0.412 0.09-0.931-0.32-1.167 -0.414-0.232-0.936-0.087-1.167 0.324l-2.315 4.096c-0.233 0.41-0.089 0.932 0.322 1.165C116.958 17.123 117.48 16.978 117.713 16.568z"/>
  <path d="M44.578 144.109c-0.412-0.232-0.932-0.086-1.166 0.324l-2.318 4.096c-0.232 0.412-0.089 0.934 0.324 1.164 0.41 0.233 0.933 0.089 1.166-0.321l2.316-4.096C45.134 144.866 44.989 144.343 44.578 144.109z"/>
  <path d="M149.435 118.479l-4.096-2.318c-0.411-0.231-0.935-0.087-1.165 0.324 -0.232 0.412-0.088 0.936 0.322 1.166l4.095 2.316c0.412 0.232 0.935 0.09 1.167-0.322C149.99 119.234 149.845 118.713 149.435 118.479z"/>
  <path d="M16.951 44.518c0.234-0.413 0.087-0.933-0.323-1.167l-4.096-2.317c-0.412-0.233-0.933-0.088-1.166 0.323 -0.232 0.412-0.087 0.935 0.324 1.167l4.096 2.317C16.198 45.075 16.719 44.929 16.951 44.518z"/>
  <path d="M144.878 44.018l4.069-2.369c0.406-0.237 0.543-0.76 0.307-1.17 -0.238-0.407-0.762-0.547-1.171-0.307l-4.065 2.369c-0.41 0.237-0.547 0.762-0.309 1.168C143.948 44.116 144.47 44.256 144.878 44.018z"/>
  <path d="M16.246 116.984l-4.067 2.369c-0.409 0.236-0.547 0.762-0.307 1.167 0.237 0.41 0.762 0.549 1.169 0.309l4.065-2.37c0.409-0.236 0.547-0.76 0.309-1.167C17.177 116.882 16.654 116.745 16.246 116.984z"/>
  <path d="M118.523 143.957c-0.236-0.407-0.762-0.545-1.17-0.309 -0.407 0.238-0.547 0.763-0.309 1.17l2.369 4.067c0.237 0.409 0.762 0.546 1.169 0.307 0.407-0.238 0.548-0.762 0.31-1.168L118.523 143.957z"/>
  <path d="M43.77 17.354c0.409-0.237 0.545-0.762 0.309-1.169l-2.37-4.065c-0.237-0.41-0.761-0.547-1.168-0.307 -0.409 0.237-0.547 0.76-0.308 1.168l2.37 4.066C42.838 17.454 43.361 17.591 43.77 17.354z"/>
</svg>